<svg xmlns="http://www.w3.org/2000/svg" width="28" height="27" viewBox="0 0 28 27"><g><g><path fill="#333" d="M27.98 5.158a.252.252 0 0 1-.005.102l-3.12 12.665a.821.821 0 0 1-.793.63H9.135a1.266 1.266 0 0 0-1.26 1.274c0 .707.563 1.28 1.257 1.28h15.116c1.6.008 2.898 1.33 2.898 2.946.002.788-.3 1.528-.85 2.08a2.845 2.845 0 0 1-2.05.865c-1.598 0-2.898-1.321-2.898-2.945-.002-.424.108-.844.335-1.277h-9.989a2.7 2.7 0 0 1 .336 1.277c.002.78-.297 1.52-.841 2.079A2.851 2.851 0 0 1 9.132 27c-1.597 0-2.896-1.321-2.896-2.945a2.936 2.936 0 0 1 .844-2.078.574.574 0 0 1 .066-.058 2.859 2.859 0 0 1-.91-2.088 2.943 2.943 0 0 1 .843-2.078 2.695 2.695 0 0 1 1.06-.645L4.336 1.665H.82A.828.828 0 0 1 0 .832C0 .373.368 0 .82 0h4.154c.378 0 .705.26.794.631l.886 3.593h20.53c.04 0 .073.01.097.021a.247.247 0 0 1 .04-.003l.04.003a.357.357 0 0 1 .194.117l.015.015.012.005c.068.038.154.085.226.181.065.078.09.169.11.242l.01.034.013.024c.022.039.059.104.059.193 0 .041-.01.076-.02.102zm-20.916.73l2.71 11.001h13.645l2.712-11zm2.069 19.448a1.265 1.265 0 0 0 1.262-1.272c0-.71-.566-1.285-1.262-1.285-.334 0-.652.134-.894.378-.236.24-.366.56-.364.898 0 .707.564 1.28 1.258 1.28zm16.376-1.273c0-.708-.566-1.284-1.262-1.284a1.274 1.274 0 0 0-1.26 1.278 1.27 1.27 0 0 0 1.26 1.279c.339 0 .657-.134.894-.377.237-.242.368-.56.368-.896z"/></g></g></svg>