<svg xmlns="http://www.w3.org/2000/svg" width="26" height="25" viewBox="0 0 26 25"><g><g><path fill="#fb2539" d="M25.998 7.698v16.533a.772.772 0 0 1-.773.769H.773A.772.772 0 0 1 0 24.23V7.699c0-.26.13-.5.35-.642L12.573.12a.79.79 0 0 1 .85 0L25.65 7.056a.764.764 0 0 1 .348.642zm-5.217 13.88H5.217v1.885H20.78zm0-3.456H5.217v1.92H20.78zm0-3.49H5.217v1.953H20.78zm0-3.41H5.217v1.872H20.78zm3.67-3.11L12.999 1.683 1.547 8.113v15.35h2.122v-13.01c0-.424.347-.768.774-.768h17.112c.426 0 .773.344.773.768v13.01h2.123z"/></g></g></svg>
