<svg xmlns="http://www.w3.org/2000/svg" width="24" height="21" viewBox="0 0 24 21"><g><g><path fill="#333" d="M23.999 7.115c0 2.998-1.48 5.949-4.4 8.77-2.584 2.499-5.621 4.218-7.202 5.02a.889.889 0 0 1-.793.002c-1.583-.804-4.62-2.523-7.205-5.022-2.92-2.821-4.4-5.772-4.4-8.77C0 3.617 2.605 0 6.966 0c2.031 0 3.682.829 5.033 2.532C13.351.829 15.001 0 17.033 0c4.36 0 6.966 3.617 6.966 7.115zM12.749 4.42a.869.869 0 0 1-.75.42.88.88 0 0 1-.75-.42C10.083 2.5 8.842 1.718 6.966 1.718c-3.427 0-5.22 2.715-5.22 5.397 0 2.514 1.305 5.05 3.88 7.539 2.258 2.182 4.9 3.735 6.373 4.51 1.473-.776 4.116-2.328 6.374-4.51 2.574-2.489 3.879-5.025 3.879-7.54 0-2.68-1.793-5.396-5.22-5.396-1.876 0-3.116.783-4.283 2.703z"/></g></g></svg>
