<svg xmlns="http://www.w3.org/2000/svg" >
	<defs>
		<style>.cls-1{fill:#333;}</style>
	</defs>
	<title>Ресурс 2</title>
	<g id="comparison" data-name="Слой 2">
		<g id="Слой_1-2" data-name="Слой 1">
			<path id="comparison" class="cls-1" d="M23.93,7.63,20.11,1.15a.56.56,0,0,0-.52-.37H13.24A1.38,1.38,0,0,0,11.42.13a1.36,1.36,0,0,0-.66.65H4.43a.56.56,0,0,0-.5.32l0,0L.08,7.63A.56.56,0,0,0,0,8.08s0,.09,0,.14a4.32,4.32,0,0,0,4.27,4.37A4.33,4.33,0,0,0,8.73,8.38q0-.08,0-.16a1.25,1.25,0,0,0,0-.14.56.56,0,0,0-.05-.44L5.29,1.9h5.42a1.4,1.4,0,0,0,.73.76V15.88H7.14a.56.56,0,1,0,0,1.12h9.72a.56.56,0,1,0,0-1.12h-4.3V2.66a1.39,1.39,0,0,0,.73-.76H18.7L15.33,7.63a.56.56,0,0,0-.05.44s0,.09,0,.14A4.36,4.36,0,0,0,24,8.38q0-.08,0-.16a1.25,1.25,0,0,0,0-.14A.56.56,0,0,0,23.93,7.63ZM1.14,8.5H7.6c0,1.65-1.14,3-3.46,3A3.07,3.07,0,0,1,1.14,8.5ZM7.23,7.38H1.52L4.37,2.52Zm5.29-6A.52.52,0,1,1,12,.87a.52.52,0,0,1,.52.52Zm7.11,1.14,2.86,4.86H16.77ZM16.4,8.67q0-.09,0-.17h6.46a3,3,0,0,1-3.06,3C17.23,11.46,16.49,9.77,16.4,8.67Z"/>
		</g>
	</g>
</svg>
