<svg xmlns="http://www.w3.org/2000/svg" width="25" height="18" viewBox="0 0 25 18"><g><g><path fill="#fb2539" d="M24.977 8.548c.002.049.005.099.005.148 0 2.721-1.867 4.622-4.54 4.622-2.675 0-4.543-1.9-4.543-4.622 0-.05.004-.099.006-.147a.599.599 0 0 1 .055-.469l3.515-6.071h-5.647c-.14.36-.413.65-.759.806v13.998h4.484c.321 0 .581.265.581.593 0 .327-.26.592-.581.592H7.423a.587.587 0 0 1-.582-.592c0-.328.26-.593.582-.593h4.483V2.815a1.466 1.466 0 0 1-.76-.806H5.5L9.014 8.08a.6.6 0 0 1 .056.468c.002.049.005.099.005.148 0 2.721-1.867 4.622-4.541 4.622-2.674 0-4.542-1.9-4.542-4.622 0-.05.004-.1.006-.15a.598.598 0 0 1 .057-.465l3.978-6.875.029-.042a.578.578 0 0 1 .524-.34h6.607A1.44 1.44 0 0 1 12.488 0a1.44 1.44 0 0 1 1.294.825h6.62a.58.58 0 0 1 .544.391l3.975 6.865a.6.6 0 0 1 .056.468zm-17.074.454H1.165c.125 1.913 1.419 3.13 3.369 3.13 1.95 0 3.244-1.217 3.369-3.13zM4.534 2.673L1.557 7.818h5.955zM12.488.922a.544.544 0 0 0-.539.548c0 .303.242.55.539.55a.544.544 0 0 0 .538-.55.544.544 0 0 0-.538-.548zm4.975 6.896h5.955l-2.977-5.144zm6.346 1.185h-6.737c.124 1.913 1.42 3.13 3.37 3.13 1.949 0 3.243-1.217 3.367-3.13z"/></g></g></svg>
