<svg xmlns="http://www.w3.org/2000/svg" width="18.969" height="20.031"><path style="fill:#fb2539" data-name="Фигура 42" d="M15.388 6.363a3.6 3.6 0 0 0-2.807 1.35L6.959 4.67a3.411 3.411 0 0 0 .212-1.146 3.592 3.592 0 1 0-3.592 3.518 3.6 3.6 0 0 0 2.8-1.337L12 8.756a3.27 3.27 0 0 0 .174 2.677l-5.612 3.143a3.609 3.609 0 0 0-2.987-1.57 3.519 3.519 0 1 0 3.592 3.517 3.431 3.431 0 0 0-.121-.858l5.833-3.265a3.616 3.616 0 0 0 2.5 1 3.519 3.519 0 1 0 .009-7.037zm-11.809-.5a2.337 2.337 0 1 1 2.385-2.337 2.364 2.364 0 0 1-2.385 2.335zm0 12.994a2.337 2.337 0 1 1 2.385-2.337 2.364 2.364 0 0 1-2.385 2.336zm11.809-6.638a2.336 2.336 0 1 1 2.384-2.336 2.364 2.364 0 0 1-2.384 2.334z" fill="#333" fill-rule="evenodd"/></svg>
